<svg xmlns="http://www.w3.org/2000/svg" viewBox="0 0 500 500" data-title="Friendly Lion" data-category="animals" data-accent="#F59E0B">
  <title>Friendly Lion</title>
  <!-- Colorable Regions -->
  <g id="regions">
    <path id="bg" name="Savannah Sky" fill="#FEF9C3" d="M 10 10 L 490 10 L 490 490 L 10 490 Z" />
    <path id="grass" name="Grass" fill="#BBF7D0" d="M 10 420 L 490 420 L 490 490 L 10 490 Z" />
    <path id="mane" name="Sunshine Mane" fill="#EA580C" d="M 250 50 C 130 50 110 240 250 260 C 390 240 370 50 250 50 Z" />
    <path id="ear_l" name="Left Ear" fill="#FBBF24" d="M 170 80 C 140 80 140 130 170 130 Z" />
    <path id="ear_r" name="Right Ear" fill="#FBBF24" d="M 330 80 C 360 80 360 130 330 130 Z" />
    <path id="head" name="Lion Face" fill="#FDE047" d="M 250 90 C 170 90 170 210 250 220 C 330 210 330 90 250 90 Z" />
    <path id="snout" name="Cheeks Snout" fill="#FEF08A" d="M 250 160 C 220 160 210 200 250 205 C 290 200 280 160 250 160 Z" />
    <path id="nose" name="Brown Nose" fill="#78350F" d="M 250 160 L 238 175 L 262 175 Z" />
    <path id="body" name="Lion Body" fill="#FBBF24" d="M 250 230 C 170 230 170 380 250 390 C 330 380 330 230 250 230 Z" />
    <path id="belly" name="Cream Tummy" fill="#FEF08A" d="M 250 250 C 210 250 210 350 250 355 C 290 350 290 250 250 250 Z" />
    <path id="paw_fl" name="Front Left Paw" fill="#FBBF24" d="M 210 320 L 210 440 L 245 440 L 245 340 Z" />
    <path id="paw_fr" name="Front Right Paw" fill="#FBBF24" d="M 255 340 L 255 440 L 290 440 L 290 320 Z" />
    <path id="leg_bl" name="Back Leg Left" fill="#F59E0B" d="M 160 350 C 130 350 130 440 190 440 C 200 440 200 410 180 370 Z" />
    <path id="leg_br" name="Back Leg Right" fill="#F59E0B" d="M 340 350 C 370 350 370 440 310 440 C 300 440 300 410 320 370 Z" />
    <path id="tail" name="Tail" fill="#FBBF24" d="M 330 360 C 410 360 420 280 390 260 C 380 255 375 270 385 280 C 400 300 370 340 325 345 Z" />
    <path id="tail_tuft" name="Tail Tuft" fill="#EA580C" d="M 390 260 C 420 230 440 270 390 280 Z" />
  </g>
  <!-- Permanent Foreground Outlines -->
  <g id="outlines">
    <path fill="#1E293B" stroke="none" stroke-width="0" stroke-linecap="round" stroke-linejoin="round" d="M 215 130 C 222 130 222 145 215 145 C 208 145 208 130 215 130 Z M 285 130 C 292 130 292 145 285 145 C 278 145 278 130 285 130 Z" />
    <path fill="none" stroke="#1E293B" stroke-width="8" stroke-linecap="round" stroke-linejoin="round" d="M 250 50 C 130 50 110 240 250 260 C 390 240 370 50 250 50 Z" />
    <path fill="none" stroke="#1E293B" stroke-width="7" stroke-linecap="round" stroke-linejoin="round" d="M 250 90 C 170 90 170 210 250 220 C 330 210 330 90 250 90 Z" />
    <path fill="none" stroke="#1E293B" stroke-width="7" stroke-linecap="round" stroke-linejoin="round" d="M 210 320 L 210 440 L 245 440 L 245 340 M 255 340 L 255 440 L 290 440 L 290 320" />
    <path fill="none" stroke="#1E293B" stroke-width="7" stroke-linecap="round" stroke-linejoin="round" d="M 160 350 C 130 350 130 440 190 440 M 340 350 C 370 350 370 440 310 440" />
    <path fill="none" stroke="#1E293B" stroke-width="5" stroke-linecap="round" stroke-linejoin="round" d="M 250 175 L 250 190 M 240 185 Q 250 195 260 185" />
  </g>
</svg>
